<?xml version="1.0" encoding="UTF-8"?><svg xmlns="http://www.w3.org/2000/svg" xmlns:xlink="http://www.w3.org/1999/xlink" height="318.3" preserveAspectRatio="xMidYMid meet" version="1.0" viewBox="53.4 53.4 318.3 318.3" width="318.3" zoomAndPan="magnify"><g><g id="change1_1"><path d="M 366.761719 212.601562 C 366.761719 297.738281 297.742188 366.757812 212.605469 366.757812 C 127.460938 366.757812 58.441406 297.738281 58.441406 212.601562 C 58.441406 127.460938 127.460938 58.445312 212.605469 58.445312 C 297.742188 58.445312 366.761719 127.460938 366.761719 212.601562" fill="#fff"/></g><g id="change2_1"><path d="M 366.761719 212.601562 L 361.761719 212.601562 C 361.757812 253.804688 345.074219 291.0625 318.074219 318.070312 C 291.066406 345.070312 253.808594 361.753906 212.605469 361.757812 C 171.394531 361.753906 134.136719 345.070312 107.128906 318.070312 C 80.125 291.0625 63.441406 253.804688 63.4375 212.601562 C 63.441406 171.394531 80.125 134.136719 107.128906 107.132812 C 134.136719 80.132812 171.394531 63.445312 212.605469 63.445312 C 253.808594 63.445312 291.066406 80.132812 318.074219 107.132812 C 345.074219 134.136719 361.757812 171.394531 361.761719 212.601562 L 371.761719 212.601562 C 371.765625 168.664062 353.9375 128.84375 325.144531 100.058594 C 296.359375 71.265625 256.539062 53.441406 212.605469 53.445312 C 168.664062 53.441406 128.84375 71.265625 100.058594 100.058594 C 71.261719 128.84375 53.4375 168.664062 53.441406 212.601562 C 53.4375 256.535156 71.261719 296.355469 100.058594 325.140625 C 128.84375 353.933594 168.664062 371.757812 212.605469 371.757812 C 256.539062 371.757812 296.359375 353.933594 325.144531 325.140625 C 353.9375 296.355469 371.765625 256.535156 371.761719 212.601562 L 366.761719 212.601562" fill="#393536"/></g><g id="change2_2"><path d="M 156.082031 212.601562 L 156.082031 119.0625 L 237.101562 165.824219 L 318.101562 212.601562 L 237.101562 259.371094 L 156.082031 306.140625 L 156.082031 212.601562" fill="#393536"/></g></g></svg>