<svg version="1.1" viewBox="0.0 0.0 1436.0 1436.0" fill="none" stroke="none" stroke-linecap="square" stroke-miterlimit="10" xmlns:xlink="http://www.w3.org/1999/xlink" xmlns="http://www.w3.org/2000/svg"><clipPath id="p.0"><path d="m0 0l1436.0 0l0 1436.0l-1436.0 0l0 -1436.0z" clip-rule="nonzero"/></clipPath><g clip-path="url(#p.0)"><path fill="#000000" fill-opacity="0.0" d="m0 0l1436.0 0l0 1436.0l-1436.0 0z" fill-rule="evenodd"/><path fill="#000000" d="m695.21375 960.15247l0 0c-177.28406 102.69946 -399.51138 72.02734 -544.0244 -75.087036c-144.51303 -147.11432 -176.09726 -374.82245 -77.319916 -557.4418c98.77736 -182.61931 303.84656 -275.64966 502.02032 -227.74329c198.17383 47.906372 341.16193 225.07578 350.04254 433.72018l-454.36917 20.347778z" fill-rule="evenodd"/><path stroke="#000000" stroke-width="2.0" stroke-linejoin="round" stroke-linecap="butt" d="m695.21375 960.15247l0 0c-177.28406 102.69946 -399.51138 72.02734 -544.0244 -75.087036c-144.51303 -147.11432 -176.09726 -374.82245 -77.319916 -557.4418c98.77736 -182.61931 303.84656 -275.64966 502.02032 -227.74329c198.17383 47.906372 341.16193 225.07578 350.04254 433.72018l-454.36917 20.347778z" fill-rule="evenodd"/><path fill="#000000" d="m926.0078 530.3461l0.83935547 11.125061l-1.9567261 7.1329346l-6.1481323 4.5651855l-240.3009 0.5270386l-186.53534 1.3703613l-7.6864624 3.4326782l-1.9196472 5.8842163l1.4403992 7.111267l117.42059 205.62488l85.541504 149.25342l10.617554 19.874329l2.2717896 7.0896606l-3.4077148 6.959961l-7.90625 4.5219116l-162.70538 -268.13995l-67.767 -146.59644l20.056854 -10.841309l444.04675 -12.030579" fill-rule="evenodd"/><path stroke="#000000" stroke-width="1.0" stroke-linejoin="round" stroke-linecap="butt" d="m926.0078 530.3461l0.83935547 11.125061l-1.9567261 7.1329346l-6.1481323 4.5651855l-240.3009 0.5270386l-186.53534 1.3703613l-7.6864624 3.4326782l-1.9196472 5.8842163l1.4403992 7.111267l117.42059 205.62488l85.541504 149.25342l10.617554 19.874329l2.2717896 7.0896606l-3.4077148 6.959961l-7.90625 4.5219116l-162.70538 -268.13995l-67.767 -146.59644l20.056854 -10.841309l444.04675 -12.030579" fill-rule="evenodd"/><path fill="#000000" d="m711.0988 963.3215l210.18256 363.50055l38.149048 2.5947266l445.05823 -751.3999l-5.086426 -19.904053l-462.89087 0.41619873l-11.838196 154.48895l-61.420288 117.63501l-110.205444 107.30737z" fill-rule="evenodd"/><path stroke="#000000" stroke-width="1.0" stroke-linejoin="round" stroke-linecap="butt" d="m711.0988 963.3215l210.18256 363.50055l38.149048 2.5947266l445.05823 -751.3999l-5.086426 -19.904053l-462.89087 0.41619873l-11.838196 154.48895l-61.420288 117.63501l-110.205444 107.30737z" fill-rule="evenodd"/><path fill="#000000" d="m920.9636 1325.8462c1.2299194 2.2124023 5.1534424 9.626343 7.3793335 13.273926c2.225891 3.647583 3.5153809 6.877075 5.976013 8.61145c2.4606934 1.7342529 6.6203613 1.854126 8.787964 1.7946777c2.1676636 -0.059448242 2.8591309 -1.1464844 4.2178955 -2.1514893c1.3587646 -1.0050049 2.282837 -1.4383545 3.9345703 -3.878662c1.6517944 -2.4403076 5.0387573 -6.8757324 5.976013 -10.762939c0.9373169 -3.887207 2.4712524 -8.541504 -0.35211182 -12.560303c-2.8234253 -4.0186768 -13.823547 -9.626709 -16.588318 -11.552124" fill-rule="evenodd"/><path stroke="#000000" stroke-width="1.0" stroke-linejoin="round" stroke-linecap="butt" d="m920.9636 1325.8462c1.2299194 2.2124023 5.1534424 9.626343 7.3793335 13.273926c2.225891 3.647583 3.5153809 6.877075 5.976013 8.61145c2.4606934 1.7342529 6.6203613 1.854126 8.787964 1.7946777c2.1676636 -0.059448242 2.8591309 -1.1464844 4.2178955 -2.1514893c1.3587646 -1.0050049 2.282837 -1.4383545 3.9345703 -3.878662c1.6517944 -2.4403076 5.0387573 -6.8757324 5.976013 -10.762939c0.9373169 -3.887207 2.4712524 -8.541504 -0.35211182 -12.560303c-2.8234253 -4.0186768 -13.823547 -9.626709 -16.588318 -11.552124" fill-rule="evenodd"/><path fill="#000000" d="m1374.9237 558.8691c3.4689941 -0.11621094 15.747559 -0.69732666 20.814087 -0.69732666c5.0665283 0 7.30249 -0.15679932 9.584839 0.69732666c2.2824707 0.854126 3.3865967 2.7961426 4.109375 4.427307c0.7229004 1.6312256 0.760376 3.3795166 0.2277832 5.3598633c-0.53271484 1.9802856 -2.0158691 4.1534424 -3.423584 6.5220337c-1.4077148 2.3686523 -4.185669 6.408142 -5.022827 7.6897583" fill-rule="evenodd"/><path stroke="#000000" stroke-width="1.0" stroke-linejoin="round" stroke-linecap="butt" d="m1374.9237 558.8691c3.4689941 -0.11621094 15.747559 -0.69732666 20.814087 -0.69732666c5.0665283 0 7.30249 -0.15679932 9.584839 0.69732666c2.2824707 0.854126 3.3865967 2.7961426 4.109375 4.427307c0.7229004 1.6312256 0.760376 3.3795166 0.2277832 5.3598633c-0.53271484 1.9802856 -2.0158691 4.1534424 -3.423584 6.5220337c-1.4077148 2.3686523 -4.185669 6.408142 -5.022827 7.6897583" fill-rule="evenodd"/><path fill="#000000" d="m960.8232 571.36536c0.93200684 -2.354187 -3.7249756 -4.5147095 -5.8674927 -5.1327515c-2.142456 -0.618042 -5.9658203 2.4024048 -6.9874268 1.4244385c-1.0216064 -0.97802734 2.5700684 -5.772949 0.8578491 -7.2924194c-1.7122192 -1.5194702 -8.348389 -2.010498 -11.131226 -1.8244629c-2.7827759 0.18609619 -4.5386963 0.74243164 -5.565613 2.940796c-1.0268555 2.1983032 -0.31329346 4.516968 -0.5957031 10.249329c-0.2824707 5.732361 -0.40777588 15.834839 -1.098877 24.144897c-0.69104004 8.309998 -1.7783813 17.223206 -3.0475464 25.715271c-1.269165 8.492004 -3.4544678 19.313904 -4.567383 25.236816c-1.1129761 5.9229736 -0.47003174 3.5403442 -2.1102905 10.30072c-1.6403198 6.760376 -5.526367 22.150635 -7.7315063 30.261536c-2.2051392 8.110901 -2.8445435 10.811523 -5.4993896 18.40393c-2.6548462 7.592407 -7.479065 19.878418 -10.429565 27.150513c-2.9505005 7.272156 -4.86969 11.123718 -7.2734375 16.482239c-2.4037476 5.3584595 -3.418274 8.401001 -7.148987 15.66864c-3.730713 7.267578 -10.430847 19.73285 -15.2352295 27.937012c-4.8043823 8.204163 -9.103516 14.418579 -13.591003 21.287964c-4.487549 6.869385 -7.7443237 12.435486 -13.3341675 19.928345c-5.589905 7.492859 -13.810791 17.52826 -20.20514 25.028748c-6.394348 7.5004883 -12.665588 14.21582 -18.161072 19.974365c-5.4954224 5.758484 -9.667419 9.715515 -14.811584 14.57666c-5.144165 4.861145 -10.23407 9.5668335 -16.053406 14.590149c-5.819397 5.0233154 -12.575134 10.605713 -18.862732 15.549744c-6.2875977 4.944031 -13.779846 10.407471 -18.862732 14.114441c-5.0828247 3.7070312 -8.248657 5.7544556 -11.634277 8.1276245c-3.38562 2.373108 -6.883301 3.6664429 -8.679382 6.111206c-1.7960815 2.4447632 -2.097046 6.163513 -2.097046 8.557373c0 2.3937988 0.9232178 4.280884 2.097046 5.805786c1.1738281 1.5248413 0.93865967 4.6800537 4.946045 3.3434448c4.0073853 -1.3365479 12.849609 -7.6951294 19.098328 -11.362915c6.2487793 -3.6678467 6.117676 -0.03967285 18.394043 -10.643982c12.276428 -10.604309 36.22461 -34.528503 55.264282 -52.981995c19.039673 -18.453491 44.10608 -38.985962 58.973755 -57.739075c14.867676 -18.753052 20.50122 -36.698425 30.232239 -54.77942c9.730957 -18.080933 21.779663 -37.941345 28.153687 -53.70636c6.3740845 -15.765015 7.666626 -24.496277 10.090637 -40.88385c2.4240723 -16.387634 2.6177979 -39.51306 4.4535522 -57.441772c1.8358154 -17.92871 3.5577393 -40.27661 6.5612183 -50.130432c3.003418 -9.853821 10.527527 -6.6383057 11.459534 -8.992554z" fill-rule="evenodd"/><path stroke="#000000" stroke-width="1.0" stroke-linejoin="round" stroke-linecap="butt" d="m960.8232 571.36536c0.93200684 -2.354187 -3.7249756 -4.5147095 -5.8674927 -5.1327515c-2.142456 -0.618042 -5.9658203 2.4024048 -6.9874268 1.4244385c-1.0216064 -0.97802734 2.5700684 -5.772949 0.8578491 -7.2924194c-1.7122192 -1.5194702 -8.348389 -2.010498 -11.131226 -1.8244629c-2.7827759 0.18609619 -4.5386963 0.74243164 -5.565613 2.940796c-1.0268555 2.1983032 -0.31329346 4.516968 -0.5957031 10.249329c-0.2824707 5.732361 -0.40777588 15.834839 -1.098877 24.144897c-0.69104004 8.309998 -1.7783813 17.223206 -3.0475464 25.715271c-1.269165 8.492004 -3.4544678 19.313904 -4.567383 25.236816c-1.1129761 5.9229736 -0.47003174 3.5403442 -2.1102905 10.30072c-1.6403198 6.760376 -5.526367 22.150635 -7.7315063 30.261536c-2.2051392 8.110901 -2.8445435 10.811523 -5.4993896 18.40393c-2.6548462 7.592407 -7.479065 19.878418 -10.429565 27.150513c-2.9505005 7.272156 -4.86969 11.123718 -7.2734375 16.482239c-2.4037476 5.3584595 -3.418274 8.401001 -7.148987 15.66864c-3.730713 7.267578 -10.430847 19.73285 -15.2352295 27.937012c-4.8043823 8.204163 -9.103516 14.418579 -13.591003 21.287964c-4.487549 6.869385 -7.7443237 12.435486 -13.3341675 19.928345c-5.589905 7.492859 -13.810791 17.52826 -20.20514 25.028748c-6.394348 7.5004883 -12.665588 14.21582 -18.161072 19.974365c-5.4954224 5.758484 -9.667419 9.715515 -14.811584 14.57666c-5.144165 4.861145 -10.23407 9.5668335 -16.053406 14.590149c-5.819397 5.0233154 -12.575134 10.605713 -18.862732 15.549744c-6.2875977 4.944031 -13.779846 10.407471 -18.862732 14.114441c-5.0828247 3.7070312 -8.248657 5.7544556 -11.634277 8.1276245c-3.38562 2.373108 -6.883301 3.6664429 -8.679382 6.111206c-1.7960815 2.4447632 -2.097046 6.163513 -2.097046 8.557373c0 2.3937988 0.9232178 4.280884 2.097046 5.805786c1.1738281 1.5248413 0.93865967 4.6800537 4.946045 3.3434448c4.0073853 -1.3365479 12.849609 -7.6951294 19.098328 -11.362915c6.2487793 -3.6678467 6.117676 -0.03967285 18.394043 -10.643982c12.276428 -10.604309 36.22461 -34.528503 55.264282 -52.981995c19.039673 -18.453491 44.10608 -38.985962 58.973755 -57.739075c14.867676 -18.753052 20.50122 -36.698425 30.232239 -54.77942c9.730957 -18.080933 21.779663 -37.941345 28.153687 -53.70636c6.3740845 -15.765015 7.666626 -24.496277 10.090637 -40.88385c2.4240723 -16.387634 2.6177979 -39.51306 4.4535522 -57.441772c1.8358154 -17.92871 3.5577393 -40.27661 6.5612183 -50.130432c3.003418 -9.853821 10.527527 -6.6383057 11.459534 -8.992554z" fill-rule="evenodd"/></g></svg>